<mxfile host="65bd71144e">
    <diagram id="3rEwoY1U99sjP7wk6nLK" name="Page-1">
        <mxGraphModel dx="518" dy="419" grid="1" gridSize="10" guides="1" tooltips="1" connect="1" arrows="1" fold="1" page="1" pageScale="1" pageWidth="850" pageHeight="1100" math="0" shadow="0">
            <root>
                <mxCell id="0"/>
                <mxCell id="1" parent="0"/>
                <mxCell id="2" value="PSG" style="rounded=1;whiteSpace=wrap;html=1;" parent="1" vertex="1">
                    <mxGeometry x="80" y="60" width="130" height="30" as="geometry"/>
                </mxCell>
                <mxCell id="4" value="Real Sociedad" style="rounded=1;whiteSpace=wrap;html=1;" parent="1" vertex="1">
                    <mxGeometry x="80" y="100" width="130" height="30" as="geometry"/>
                </mxCell>
                <mxCell id="5" value="Porto" style="rounded=1;whiteSpace=wrap;html=1;" parent="1" vertex="1">
                    <mxGeometry x="80" y="170" width="130" height="30" as="geometry"/>
                </mxCell>
                <mxCell id="6" value="Arsenal" style="rounded=1;whiteSpace=wrap;html=1;" parent="1" vertex="1">
                    <mxGeometry x="80" y="210" width="130" height="30" as="geometry"/>
                </mxCell>
                <mxCell id="7" value="Napoli" style="rounded=1;whiteSpace=wrap;html=1;" parent="1" vertex="1">
                    <mxGeometry x="80" y="290" width="130" height="30" as="geometry"/>
                </mxCell>
                <mxCell id="8" value="Barca" style="rounded=1;whiteSpace=wrap;html=1;" parent="1" vertex="1">
                    <mxGeometry x="80" y="330" width="130" height="30" as="geometry"/>
                </mxCell>
                <mxCell id="9" value="Copenhague" style="rounded=1;whiteSpace=wrap;html=1;" parent="1" vertex="1">
                    <mxGeometry x="80" y="410" width="130" height="30" as="geometry"/>
                </mxCell>
                <mxCell id="10" value="Manchester CIty" style="rounded=1;whiteSpace=wrap;html=1;" parent="1" vertex="1">
                    <mxGeometry x="80" y="450" width="130" height="30" as="geometry"/>
                </mxCell>
                <mxCell id="11" value="Inter" style="rounded=1;whiteSpace=wrap;html=1;" parent="1" vertex="1">
                    <mxGeometry x="80" y="520" width="130" height="30" as="geometry"/>
                </mxCell>
                <mxCell id="12" value="Atl. Madrid" style="rounded=1;whiteSpace=wrap;html=1;" parent="1" vertex="1">
                    <mxGeometry x="80" y="560" width="130" height="30" as="geometry"/>
                </mxCell>
                <mxCell id="13" value="PSV" style="rounded=1;whiteSpace=wrap;html=1;" parent="1" vertex="1">
                    <mxGeometry x="80" y="640" width="130" height="30" as="geometry"/>
                </mxCell>
                <mxCell id="14" value="Dortmund" style="rounded=1;whiteSpace=wrap;html=1;" parent="1" vertex="1">
                    <mxGeometry x="80" y="680" width="130" height="30" as="geometry"/>
                </mxCell>
                <mxCell id="15" value="Lazio" style="rounded=1;whiteSpace=wrap;html=1;" parent="1" vertex="1">
                    <mxGeometry x="80" y="760" width="130" height="30" as="geometry"/>
                </mxCell>
                <mxCell id="16" value="Bayern Munich" style="rounded=1;whiteSpace=wrap;html=1;" parent="1" vertex="1">
                    <mxGeometry x="80" y="800" width="130" height="30" as="geometry"/>
                </mxCell>
                <mxCell id="17" value="Leipzig" style="rounded=1;whiteSpace=wrap;html=1;" parent="1" vertex="1">
                    <mxGeometry x="80" y="880" width="130" height="30" as="geometry"/>
                </mxCell>
                <mxCell id="18" value="Real Madrid" style="rounded=1;whiteSpace=wrap;html=1;" parent="1" vertex="1">
                    <mxGeometry x="80" y="920" width="130" height="30" as="geometry"/>
                </mxCell>
                <mxCell id="20" value="" style="endArrow=none;html=1;" parent="1" edge="1">
                    <mxGeometry width="50" height="50" relative="1" as="geometry">
                        <mxPoint x="260" y="200" as="sourcePoint"/>
                        <mxPoint x="260" y="90" as="targetPoint"/>
                        <Array as="points">
                            <mxPoint x="260" y="150"/>
                        </Array>
                    </mxGeometry>
                </mxCell>
                <mxCell id="21" value="" style="endArrow=none;html=1;" parent="1" edge="1">
                    <mxGeometry width="50" height="50" relative="1" as="geometry">
                        <mxPoint x="210" y="90" as="sourcePoint"/>
                        <mxPoint x="260" y="90" as="targetPoint"/>
                    </mxGeometry>
                </mxCell>
                <mxCell id="23" value="" style="endArrow=none;html=1;" parent="1" edge="1">
                    <mxGeometry width="50" height="50" relative="1" as="geometry">
                        <mxPoint x="210" y="200" as="sourcePoint"/>
                        <mxPoint x="260" y="200" as="targetPoint"/>
                    </mxGeometry>
                </mxCell>
                <mxCell id="24" value="" style="endArrow=none;html=1;" parent="1" edge="1">
                    <mxGeometry width="50" height="50" relative="1" as="geometry">
                        <mxPoint x="260" y="140" as="sourcePoint"/>
                        <mxPoint x="300" y="140" as="targetPoint"/>
                    </mxGeometry>
                </mxCell>
                <mxCell id="25" value="" style="endArrow=none;html=1;" parent="1" edge="1">
                    <mxGeometry width="50" height="50" relative="1" as="geometry">
                        <mxPoint x="260" y="439" as="sourcePoint"/>
                        <mxPoint x="260" y="329" as="targetPoint"/>
                        <Array as="points">
                            <mxPoint x="260" y="389"/>
                        </Array>
                    </mxGeometry>
                </mxCell>
                <mxCell id="26" value="" style="endArrow=none;html=1;" parent="1" edge="1">
                    <mxGeometry width="50" height="50" relative="1" as="geometry">
                        <mxPoint x="210" y="329" as="sourcePoint"/>
                        <mxPoint x="260" y="329" as="targetPoint"/>
                    </mxGeometry>
                </mxCell>
                <mxCell id="27" value="" style="endArrow=none;html=1;" parent="1" edge="1">
                    <mxGeometry width="50" height="50" relative="1" as="geometry">
                        <mxPoint x="210" y="439" as="sourcePoint"/>
                        <mxPoint x="260" y="439" as="targetPoint"/>
                    </mxGeometry>
                </mxCell>
                <mxCell id="28" value="" style="endArrow=none;html=1;" parent="1" edge="1">
                    <mxGeometry width="50" height="50" relative="1" as="geometry">
                        <mxPoint x="260" y="379" as="sourcePoint"/>
                        <mxPoint x="300" y="379" as="targetPoint"/>
                    </mxGeometry>
                </mxCell>
                <mxCell id="29" value="" style="endArrow=none;html=1;" parent="1" edge="1">
                    <mxGeometry width="50" height="50" relative="1" as="geometry">
                        <mxPoint x="260" y="669" as="sourcePoint"/>
                        <mxPoint x="260" y="559" as="targetPoint"/>
                        <Array as="points">
                            <mxPoint x="260" y="619"/>
                        </Array>
                    </mxGeometry>
                </mxCell>
                <mxCell id="30" value="" style="endArrow=none;html=1;" parent="1" edge="1">
                    <mxGeometry width="50" height="50" relative="1" as="geometry">
                        <mxPoint x="210" y="559" as="sourcePoint"/>
                        <mxPoint x="260" y="559" as="targetPoint"/>
                    </mxGeometry>
                </mxCell>
                <mxCell id="31" value="" style="endArrow=none;html=1;" parent="1" edge="1">
                    <mxGeometry width="50" height="50" relative="1" as="geometry">
                        <mxPoint x="210" y="669" as="sourcePoint"/>
                        <mxPoint x="260" y="669" as="targetPoint"/>
                    </mxGeometry>
                </mxCell>
                <mxCell id="32" value="" style="endArrow=none;html=1;" parent="1" edge="1">
                    <mxGeometry width="50" height="50" relative="1" as="geometry">
                        <mxPoint x="260" y="609" as="sourcePoint"/>
                        <mxPoint x="300" y="609" as="targetPoint"/>
                    </mxGeometry>
                </mxCell>
                <mxCell id="33" value="" style="endArrow=none;html=1;" parent="1" edge="1">
                    <mxGeometry width="50" height="50" relative="1" as="geometry">
                        <mxPoint x="260" y="910" as="sourcePoint"/>
                        <mxPoint x="260" y="800" as="targetPoint"/>
                        <Array as="points">
                            <mxPoint x="260" y="860"/>
                        </Array>
                    </mxGeometry>
                </mxCell>
                <mxCell id="34" value="" style="endArrow=none;html=1;" parent="1" edge="1">
                    <mxGeometry width="50" height="50" relative="1" as="geometry">
                        <mxPoint x="210" y="800" as="sourcePoint"/>
                        <mxPoint x="260" y="800" as="targetPoint"/>
                    </mxGeometry>
                </mxCell>
                <mxCell id="35" value="" style="endArrow=none;html=1;" parent="1" edge="1">
                    <mxGeometry width="50" height="50" relative="1" as="geometry">
                        <mxPoint x="210" y="910" as="sourcePoint"/>
                        <mxPoint x="260" y="910" as="targetPoint"/>
                    </mxGeometry>
                </mxCell>
                <mxCell id="36" value="" style="endArrow=none;html=1;" parent="1" edge="1">
                    <mxGeometry width="50" height="50" relative="1" as="geometry">
                        <mxPoint x="260" y="850" as="sourcePoint"/>
                        <mxPoint x="300" y="850" as="targetPoint"/>
                    </mxGeometry>
                </mxCell>
                <mxCell id="37" value="PSG" style="rounded=1;whiteSpace=wrap;html=1;" parent="1" vertex="1">
                    <mxGeometry x="310" y="110" width="130" height="30" as="geometry"/>
                </mxCell>
                <mxCell id="38" value="Arsenal" style="rounded=1;whiteSpace=wrap;html=1;" parent="1" vertex="1">
                    <mxGeometry x="310" y="150" width="130" height="30" as="geometry"/>
                </mxCell>
                <mxCell id="39" value="Napoli" style="rounded=1;whiteSpace=wrap;html=1;" parent="1" vertex="1">
                    <mxGeometry x="310" y="340" width="130" height="30" as="geometry"/>
                </mxCell>
                <mxCell id="40" value="Copenhagen" style="rounded=1;whiteSpace=wrap;html=1;" parent="1" vertex="1">
                    <mxGeometry x="310" y="380" width="130" height="30" as="geometry"/>
                </mxCell>
                <mxCell id="41" value="Atl. Madrid" style="rounded=1;whiteSpace=wrap;html=1;" parent="1" vertex="1">
                    <mxGeometry x="310" y="570" width="130" height="30" as="geometry"/>
                </mxCell>
                <mxCell id="42" value="Dortmund" style="rounded=1;whiteSpace=wrap;html=1;" parent="1" vertex="1">
                    <mxGeometry x="310" y="610" width="130" height="30" as="geometry"/>
                </mxCell>
                <mxCell id="43" value="Bayern&amp;nbsp; Munich" style="rounded=1;whiteSpace=wrap;html=1;" parent="1" vertex="1">
                    <mxGeometry x="310" y="810" width="130" height="30" as="geometry"/>
                </mxCell>
                <mxCell id="44" value="Real Madrid" style="rounded=1;whiteSpace=wrap;html=1;" parent="1" vertex="1">
                    <mxGeometry x="310" y="850" width="130" height="30" as="geometry"/>
                </mxCell>
            </root>
        </mxGraphModel>
    </diagram>
</mxfile>
